# xmcd
#
# Track frame offsets:
#	150
#	25293
#	39435
#	54451
#	75481
#	97929
#	114400
#	128423
#	143025
#	162749
#	176888
#	194460
#	213862
#	234398
#
# Disc length: 3628 seconds
#
# Revision: 1
# Processed by: cddbd v1.5.1PL2 Copyright (c) Steve Scherf et al.
# Submitted via: dBpowerAMP V4.0
#
DISCID=b40e2a0e
DTITLE=Varius - Taurinorum Blues Society
DYEAR=2005
DGENRE=Blues
TTITLE0=Expresso Blues Band - Home in Maxwell Street
TTITLE1=Flip Flop and Fly - Lord's Blues Band
TTITLE2=Sonny's Song - Dodo "Harmonica Kid" Belcastro
TTITLE3=Every Morning - Andrea Preto and Chicago Sound Machine
TTITLE4=Thing's Goin' On - Tecnica Zero
TTITLE5=Phonograph Blues - Fabio Marcias Delta Sound
TTITLE6=Empty Arms - Making Time Jump Blues Band
TTITLE7=Someday Baby - Blues Coffee Band
TTITLE8=The Bottle Gives Me Confort - Peter Nolan and The Liffey Beat Band
TTITLE9=Just Water - Marcello and The Machine
TTITLE10=Start Me Up Start Me Down - Luigi Tempera
TTITLE11=Gipsy Woman - Gaetano Pellino and The Fandango Band
TTITLE12=My Place - Paco Deluz
TTITLE13=Lil' Red Rooster - Eugenio Finardi (from Anima Blues)
EXTD=Sponsored by REGIONE PIEMONTE
EXTT0=
EXTT1=
EXTT2=
EXTT3=
EXTT4=
EXTT5=
EXTT6=
EXTT7=
EXTT8=
EXTT9=
EXTT10=
EXTT11=
EXTT12=
EXTT13=
PLAYORDER=
